<svg id="Capa_1" enable-background="new 0 0 512.141 512.141" height="512" viewBox="0 0 512.141 512.141" width="512" xmlns="http://www.w3.org/2000/svg"><g><path d="m473.874 38.197c-50.929-50.929-133.796-50.931-184.726 0l-95.587 95.586 63.277 63.277 95.586-95.586c16.039-16.038 42.135-16.038 58.174 0 16.039 16.039 16.039 42.135 0 58.174l-95.587 95.586 63.277 63.277 95.586-95.587c50.929-50.929 50.929-133.798 0-184.727zm-237.887 95.586 14.333-14.333 20.85 20.85-14.333 14.333zm121.451 121.45 14.333-14.333 20.85 20.85-14.333 14.333zm95.223-53.523-38.827 38.827-20.85-20.85 38.827-38.827c13.436-13.436 20.835-31.299 20.835-50.3s-7.399-36.865-20.835-50.3c-13.435-13.436-31.299-20.835-50.3-20.835-19 0-36.864 7.399-50.3 20.835l-38.827 38.827-20.85-20.85 38.826-38.827c39.233-39.232 103.069-39.232 142.3 0 39.233 39.233 39.233 103.069.001 142.3z"/><path d="m357.781 414.651c-13.439-13.439-33.458-16.35-49.748-8.741l-56.472-56.472v-88.787h-88.787l-56.472-56.472c20.047-44.442-35.387-84.044-70.961-49.748-27.705 27.581-7.528 75.344 31.111 75.089 6.379 0 12.758-1.369 18.647-4.119l38.129 38.129c-43.729-5.859-89.618 7.981-123.157 41.51l21.21 21.22c32.47-32.47 79.52-41.72 120.28-27.73v72.12h72.12c13.99 40.76 4.74 87.81-27.73 120.28l21.22 21.21c33.529-33.539 47.369-79.428 41.51-123.157l38.139 38.139c-13.704 28.509 7.915 62.987 39.851 62.618 38.638.262 58.816-47.533 31.11-75.089zm-291.33-215.11c-12.367.068-18.688-15.194-9.9-23.9 5.216-5.427 14.59-5.43 19.8 0 8.792 8.699 2.469 23.974-9.9 23.9zm105.11 141.11v-50h50v50zm165.01 115.01c-8.706 8.788-23.969 2.467-23.9-9.9-.159-7.527 6.472-14.159 14-14 12.367-.068 18.688 15.194 9.9 23.9z"/></g></svg>